<?xml version="1.0" standalone="no"?>
<!DOCTYPE svg PUBLIC "-//W3C//DTD SVG 20010904//EN"
 "http://www.w3.org/TR/2001/REC-SVG-20010904/DTD/svg10.dtd">
<svg version="1.0" xmlns="http://www.w3.org/2000/svg"
 width="150.000000pt" height="150.000000pt" viewBox="0 0 150.000000 150.000000"
 preserveAspectRatio="xMidYMid meet">

<g transform="translate(0.000000,150.000000) scale(0.100000,-0.100000)"
fill="#000000" stroke="none">
<path d="M722 1456 c-17 -19 -34 -42 -40 -51 -8 -15 -16 -11 -68 25 -55 38
-59 40 -72 23 -7 -10 -18 -36 -24 -58 -6 -22 -13 -41 -14 -43 -1 -2 -32 6 -69
17 -37 12 -72 21 -77 21 -7 0 -9 -22 -4 -63 l6 -62 -81 4 -80 3 16 -38 c9 -22
23 -49 30 -61 14 -21 13 -22 -23 -29 -66 -11 -112 -25 -112 -33 0 -5 20 -27
45 -50 25 -23 45 -43 45 -44 0 -2 -27 -16 -60 -32 -33 -16 -59 -34 -57 -39 1
-6 29 -24 60 -40 l58 -29 -47 -48 c-26 -27 -45 -51 -42 -54 3 -3 33 -11 66
-18 34 -7 64 -15 67 -19 4 -3 -1 -20 -9 -37 -9 -17 -21 -43 -27 -57 l-10 -27
81 6 81 5 -7 -58 c-4 -35 -2 -60 4 -64 6 -3 39 3 74 14 76 24 78 24 78 5 0
-27 32 -95 45 -95 7 0 37 16 65 35 l53 36 15 -23 c9 -12 29 -36 44 -53 l28
-30 33 36 c19 19 38 43 44 53 8 15 14 14 62 -18 29 -20 59 -36 66 -36 13 0 45
68 45 95 0 19 18 19 61 1 19 -7 49 -16 68 -20 l34 -6 -6 64 -6 64 80 -5 80 -6
-10 27 c-6 14 -18 40 -27 57 -8 17 -13 34 -9 37 3 4 33 12 67 19 33 7 63 15
66 18 3 3 -16 27 -42 54 l-47 48 39 17 c22 10 52 26 67 36 l28 19 -66 32 -67
33 47 49 c54 54 51 62 -28 73 -68 9 -74 15 -55 53 9 17 21 43 26 57 l10 26
-80 -4 -80 -3 6 62 c5 41 3 63 -4 63 -5 0 -40 -9 -77 -21 -37 -11 -68 -19 -69
-17 -1 2 -10 29 -20 61 -9 31 -20 57 -23 57 -3 0 -33 -18 -66 -40 -52 -35 -62
-39 -70 -25 -14 25 -68 85 -77 85 -4 0 -22 -15 -38 -34z m70 -53 c35 -33 34
-39 -2 -83 l-30 -34 -30 34 c-16 19 -29 39 -30 44 0 10 50 66 59 66 3 0 18
-12 33 -27z m-170 -18 c36 -24 36 -25 24 -65 -7 -23 -15 -42 -18 -43 -13 -4
-87 48 -88 61 0 17 29 72 38 72 4 0 24 -11 44 -25z m343 -5 c8 -16 15 -35 15
-42 0 -13 -74 -65 -87 -61 -4 1 -12 20 -19 43 -12 40 -12 41 24 65 46 31 48
31 67 -5z m-504 -50 c34 -10 37 -14 44 -56 3 -25 5 -48 3 -50 -2 -2 -27 4 -56
13 l-52 17 0 43 c0 47 3 49 61 33z m286 -73 c-2 -7 -7 -23 -11 -37 -6 -25 -6
-25 5 -2 7 12 15 22 19 22 4 0 12 -10 19 -22 11 -23 11 -15 -3 29 -5 16 1 31
25 57 17 20 35 34 40 31 5 -3 14 -23 20 -44 11 -36 9 -42 -17 -77 l-28 -39 31
29 32 28 4 -38 c3 -38 4 -37 5 8 2 44 5 49 45 73 24 14 47 25 50 25 4 0 7 -20
7 -45 0 -42 -3 -48 -35 -66 -44 -26 -46 -35 -4 -13 35 18 34 19 15 -41 -4 -11
3 -1 16 23 19 36 30 45 72 57 63 19 59 20 51 -12 -10 -43 -33 -73 -58 -74 -18
-1 -18 -2 -4 -6 17 -4 17 -6 1 -31 -15 -25 -14 -24 18 6 29 28 41 32 86 32 29
0 52 -3 52 -7 0 -4 -14 -22 -32 -40 -25 -26 -41 -33 -72 -34 -32 -2 -34 -3
-13 -6 24 -4 26 -7 15 -20 -12 -15 -10 -15 18 0 24 12 39 14 75 6 62 -14 66
-23 23 -48 -42 -25 -54 -27 -104 -18 -34 7 -34 6 -6 -4 22 -9 25 -14 15 -21
-10 -7 -5 -8 14 -3 21 4 41 -1 74 -20 24 -15 42 -29 39 -32 -3 -3 -27 -12 -53
-18 -41 -11 -53 -10 -78 3 -27 14 -29 14 -17 -1 11 -13 9 -16 -15 -20 -22 -3
-20 -4 12 -6 29 -1 47 -9 72 -33 18 -18 33 -36 33 -40 0 -4 -23 -8 -52 -8 -47
0 -56 4 -92 38 -32 30 -35 32 -17 8 17 -23 19 -31 9 -38 -10 -6 -8 -8 5 -8 19
0 57 -55 57 -82 0 -12 -6 -15 -22 -11 -70 15 -85 24 -106 66 -21 38 -23 34 -5
-10 5 -13 2 -15 -18 -10 -23 6 -23 5 4 -14 22 -17 27 -28 27 -65 0 -24 -3 -44
-6 -44 -4 0 -26 12 -50 28 -41 25 -44 30 -46 72 -1 37 -2 39 -5 13 -5 -39 -9
-40 -42 -10 -22 20 -22 19 4 -16 28 -38 28 -40 14 -80 -8 -23 -18 -42 -24 -41
-5 0 -22 16 -38 36 l-28 35 20 54 c23 60 25 67 12 53 -5 -5 -14 -26 -21 -46
-14 -45 -24 -48 -39 -10 l-11 27 5 -27 c3 -14 7 -33 11 -41 6 -17 -53 -90 -67
-82 -5 3 -14 23 -20 44 -11 36 -9 42 17 77 27 37 27 38 3 17 -33 -30 -37 -29
-42 10 -3 26 -4 24 -5 -13 -2 -42 -5 -47 -46 -73 -24 -15 -46 -27 -50 -27 -3
0 -6 20 -6 44 0 37 5 48 28 65 26 19 26 20 3 14 -20 -5 -23 -3 -18 10 18 44
16 48 -5 10 -21 -42 -35 -50 -106 -66 -22 -5 -23 -3 -17 21 10 40 33 72 53 72
12 0 14 2 4 8 -10 7 -8 15 9 38 18 24 15 22 -17 -8 -36 -34 -45 -38 -92 -38
-29 0 -52 3 -52 7 0 4 14 22 32 40 25 26 41 33 72 34 32 2 34 3 13 6 -24 4
-26 7 -15 20 12 15 10 15 -17 1 -25 -13 -37 -14 -78 -3 -26 6 -50 15 -53 18
-3 3 15 17 39 32 32 18 54 24 74 20 15 -3 22 -2 14 1 -11 5 -11 8 0 15 9 6 2
8 -21 7 -37 -1 -117 39 -103 52 4 4 28 12 52 18 38 9 50 8 85 -9 41 -20 41
-20 16 0 l-25 20 40 4 c38 3 37 4 -10 5 -40 2 -55 8 -82 34 -18 18 -33 36 -33
40 0 4 25 8 55 8 48 0 59 -4 80 -27 13 -16 25 -23 25 -16 0 6 -5 15 -12 19 -8
5 -6 10 8 15 18 7 17 8 -3 8 -25 1 -48 30 -58 74 -8 32 -12 31 53 12 48 -14
53 -20 73 -65 12 -27 28 -55 35 -61 8 -7 3 8 -11 32 -34 60 -33 74 5 54 41
-21 38 -12 -5 14 -32 18 -35 24 -35 66 0 25 3 45 7 45 3 0 26 -11 50 -25 41
-24 43 -29 44 -73 l2 -47 6 39 6 39 37 -41 c27 -30 38 -37 42 -26 3 8 2 13 -3
9 -10 -6 -71 66 -71 84 0 7 7 28 16 49 l15 37 35 -38 c20 -21 34 -44 31 -50z
m373 40 l0 -43 -52 -17 c-29 -9 -53 -15 -55 -13 -2 1 0 24 3 49 6 42 10 48 38
56 60 18 66 15 66 -32z m-747 -71 c15 -15 42 -75 36 -79 -2 -2 -28 -1 -57 1
-46 3 -54 8 -67 32 -26 49 -20 60 29 60 25 0 51 -6 59 -14z m873 -18 c-9 -45
-23 -55 -83 -60 -58 -6 -61 -1 -35 45 23 43 30 47 81 47 l44 0 -7 -32z m-927
-122 c18 -19 29 -36 24 -39 -4 -2 -30 -8 -57 -12 -44 -6 -51 -4 -77 21 -36 34
-36 40 -1 52 50 19 76 14 111 -22z m990 23 c17 -6 31 -14 31 -18 0 -4 -13 -20
-29 -35 -26 -25 -33 -27 -77 -21 -27 4 -53 10 -57 12 -14 9 56 73 78 73 12 0
36 -5 54 -11z m-985 -168 c-5 -4 -29 -16 -53 -26 -43 -19 -44 -19 -77 0 -19
11 -35 25 -36 30 0 6 16 20 37 32 l39 21 49 -25 c27 -13 46 -28 41 -32z m1038
4 c-1 -5 -17 -19 -36 -30 -33 -19 -34 -19 -77 0 -65 28 -66 31 -13 58 l49 25
39 -21 c22 -12 38 -26 38 -32z m-1012 -101 c2 -3 -12 -21 -32 -40 -32 -33 -39
-36 -74 -30 -67 12 -73 21 -39 56 29 30 33 31 85 25 30 -4 57 -9 60 -11z m965
-14 c34 -35 28 -44 -38 -56 -35 -5 -43 -3 -73 27 -19 18 -34 36 -34 40 0 7 35
14 91 17 17 1 35 -8 54 -28z m-905 -87 c0 -3 -7 -23 -17 -44 -12 -28 -24 -39
-46 -43 -67 -13 -84 -2 -68 47 11 34 15 36 59 40 26 2 53 4 60 5 6 1 12 -1 12
-5z m823 -17 c14 -21 19 -58 9 -68 -6 -6 -28 -8 -54 -4 -37 6 -45 12 -60 45
-10 21 -18 40 -18 44 0 10 115 -5 123 -17z m-723 -68 c0 -7 -3 -29 -6 -50 -6
-33 -10 -37 -50 -47 -23 -6 -45 -11 -48 -11 -3 0 -6 19 -6 43 0 43 1 44 48 59
60 20 62 21 62 6z m569 -9 c40 -12 41 -13 41 -56 0 -23 -3 -43 -6 -43 -3 0
-25 5 -50 11 -31 8 -44 17 -44 29 0 10 -3 32 -7 50 -5 28 -3 32 9 27 9 -3 34
-11 57 -18z m-434 -77 c14 -46 13 -48 -43 -76 l-33 -17 -14 35 c-8 20 -15 39
-15 43 1 11 73 62 84 59 5 -1 15 -21 21 -44z m297 18 c42 -28 45 -38 23 -81
-16 -29 -16 -29 -48 -13 -54 27 -57 32 -45 67 5 18 12 38 14 45 5 16 7 15 56
-18z m-149 -24 c15 -19 27 -39 27 -44 0 -4 -13 -21 -30 -37 l-30 -29 -30 29
c-16 16 -30 33 -30 37 0 10 52 78 60 78 3 0 17 -16 33 -34z"/>
<path d="M790 1185 c0 -5 5 -17 10 -25 5 -8 10 -10 10 -5 0 6 -5 17 -10 25 -5
8 -10 11 -10 5z"/>
<path d="M630 1143 c0 -6 8 -17 18 -24 16 -13 16 -13 2 6 -8 11 -16 22 -17 24
-2 2 -3 0 -3 -6z"/>
<path d="M871 1127 c-13 -21 -12 -21 5 -5 10 10 16 20 13 22 -3 3 -11 -5 -18
-17z"/>
<path d="M939 1093 c-13 -16 -12 -17 4 -4 9 7 17 15 17 17 0 8 -8 3 -21 -13z"/>
<path d="M734 955 c-4 -9 -2 -21 4 -27 16 -16 47 -5 47 17 0 26 -42 34 -51 10z"/>
<path d="M480 909 c0 -5 5 -7 10 -4 6 3 10 8 10 11 0 2 -4 4 -10 4 -5 0 -10
-5 -10 -11z"/>
<path d="M1025 910 c3 -5 8 -10 11 -10 2 0 4 5 4 10 0 6 -5 10 -11 10 -5 0 -7
-4 -4 -10z"/>
<path d="M576 805 c-11 -8 -17 -17 -14 -20 2 -3 13 4 23 15 21 23 18 25 -9 5z"/>
<path d="M934 801 c20 -22 26 -25 26 -13 0 4 -10 13 -22 21 -23 14 -23 14 -4
-8z"/>
<path d="M640 765 c-7 -9 -11 -17 -9 -20 3 -2 10 5 17 15 14 24 10 26 -8 5z"/>
<path d="M871 763 c7 -12 15 -20 18 -17 3 2 -3 12 -13 22 -17 16 -18 16 -5 -5z"/>
<path d="M716 727 c3 -10 9 -15 12 -12 3 3 0 11 -7 18 -10 9 -11 8 -5 -6z"/>
<path d="M70 240 l0 -80 690 0 690 0 0 80 0 80 -690 0 -690 0 0 -80z m930 0
c0 -40 -4 -70 -10 -70 -6 0 -10 30 -10 70 0 40 4 70 10 70 6 0 10 -30 10 -70z
m178 42 c3 -17 10 -22 32 -22 40 0 57 -32 35 -66 -16 -24 -32 -28 -72 -18 -21
6 -23 12 -23 71 0 47 3 64 13 61 6 -3 13 -14 15 -26z m230 -37 c-4 -79 -22
-91 -26 -16 -3 59 2 81 18 81 7 0 10 -23 8 -65z m-1242 15 c15 -22 30 -40 34
-40 4 0 20 19 35 42 25 38 29 40 35 22 13 -33 16 -99 5 -102 -5 -1 -14 12 -18
29 -7 25 -11 28 -22 19 -8 -7 -17 -20 -20 -31 -9 -28 -21 -24 -48 16 l-24 36
-7 -41 c-3 -22 -11 -40 -16 -40 -6 0 -10 4 -10 8 0 16 23 122 26 122 2 0 16
-18 30 -40z m300 0 c15 -22 30 -40 34 -40 4 0 20 19 35 42 25 38 29 40 35 22
5 -11 9 -40 11 -64 5 -58 -16 -65 -25 -8 l-7 43 -22 -37 c-12 -21 -27 -38 -32
-38 -6 0 -19 16 -30 36 l-20 37 -10 -44 c-15 -63 -27 -32 -14 35 7 31 13 56
15 56 2 0 16 -18 30 -40z m469 29 c11 -17 -1 -21 -28 -8 -50 23 -103 -41 -65
-79 7 -7 27 -12 45 -12 26 0 33 4 33 20 0 11 5 20 11 20 6 0 9 -12 7 -27 -3
-27 -6 -28 -54 -28 -60 1 -84 16 -84 54 0 31 8 44 35 59 25 14 92 15 100 1z
m-543 -39 c4 -30 1 -34 -26 -35 -42 0 -45 -23 -4 -27 27 -3 30 -5 14 -13 -46
-21 -97 33 -66 71 14 16 79 19 82 4z m298 -5 c16 -19 7 -29 -27 -30 -39 0 -40
-23 -1 -27 27 -3 30 -5 14 -13 -46 -21 -97 33 -66 71 16 19 64 18 80 -1z m434
-1 c9 -8 16 -20 16 -25 0 -17 -40 -49 -62 -49 -24 0 -58 27 -58 46 0 39 74 59
104 28z m220 4 c3 -7 7 -27 10 -44 5 -31 4 -31 -37 -30 -35 1 -43 5 -45 22 -2
17 4 23 28 28 19 3 29 10 25 17 -4 6 -16 9 -26 6 -11 -3 -19 -1 -19 4 0 14 60
11 64 -3z m-569 -28 c4 -6 -7 -10 -24 -10 -17 0 -31 5 -31 10 0 6 11 10 24 10
14 0 28 -4 31 -10z"/>
<path d="M1181 231 c-9 -15 -7 -23 5 -36 15 -15 18 -15 33 -1 12 12 13 21 5
33 -16 25 -31 27 -43 4z"/>
<path d="M335 240 c-3 -5 3 -10 14 -10 12 0 21 5 21 10 0 6 -6 10 -14 10 -8 0
-18 -4 -21 -10z"/>
<path d="M635 240 c-3 -5 3 -10 14 -10 12 0 21 5 21 10 0 6 -6 10 -14 10 -8 0
-18 -4 -21 -10z"/>
<path d="M1057 244 c-11 -12 -8 -41 6 -53 19 -15 50 9 45 35 -3 19 -38 31 -51
18z"/>
<path d="M1295 200 c-3 -5 3 -10 14 -10 12 0 21 5 21 10 0 6 -6 10 -14 10 -8
0 -18 -4 -21 -10z"/>
<path d="M1222 70 c0 -19 2 -27 5 -17 2 9 2 25 0 35 -3 9 -5 1 -5 -18z"/>
<path d="M271 64 c0 -11 3 -14 6 -6 3 7 2 16 -1 19 -3 4 -6 -2 -5 -13z"/>
<path d="M661 64 c0 -11 3 -14 6 -6 3 7 2 16 -1 19 -3 4 -6 -2 -5 -13z"/>
<path d="M1341 64 c0 -11 3 -14 6 -6 3 7 2 16 -1 19 -3 4 -6 -2 -5 -13z"/>
</g>
</svg>
